<?xml version="1.0" encoding="UTF-8"?>
<svg id="Capa_2" data-name="Capa 2" xmlns="http://www.w3.org/2000/svg" viewBox="0 0 915.63 217.15">
  <defs>
    <style>
      .cls-1 {
        fill: #0a0f4c;
      }

      .cls-2 {
        fill: #4967e4;
      }
    </style>
  </defs>
  <g id="Capa_1" data-name="Capa 1">
    <g>
      <path class="cls-1" d="M0,62h58.5c14.4,0,25.74,3.96,32.94,11.16,5.76,5.76,8.64,12.78,8.64,21.42v.36c0,14.22-7.56,22.14-16.56,27.18,14.58,5.58,23.58,14.04,23.58,30.96v.36c0,23.04-18.72,34.56-47.16,34.56H0V62ZM72.54,99.26c0-8.28-6.48-12.96-18.18-12.96h-27.36v26.64h25.56c12.24,0,19.98-3.96,19.98-13.32v-.36ZM59.04,135.98H27v27.72h32.94c12.24,0,19.62-4.32,19.62-13.68v-.36c0-8.46-6.3-13.68-20.52-13.68Z"/>
      <path class="cls-1" d="M126.68,91.52h27.36v19.44c5.58-13.32,14.58-21.96,30.78-21.24v28.62h-1.44c-18.18,0-29.34,10.98-29.34,34.02v35.64h-27.36v-96.48Z"/>
      <path class="cls-1" d="M197.28,56.6h28.8v24.3h-28.8v-24.3ZM198,91.52h27.36v96.48h-27.36v-96.48Z"/>
      <path class="cls-1" d="M243.7,139.94v-.36c0-32.22,21.06-49.86,43.92-49.86,14.58,0,23.58,6.66,30.06,14.4v-47.52h27.36v131.39h-27.36v-13.86c-6.66,9-15.84,15.66-30.06,15.66-22.5,0-43.92-17.64-43.92-49.86ZM318.03,139.94v-.36c0-16.02-10.62-26.64-23.4-26.64s-23.58,10.44-23.58,26.64v.36c0,16.02,10.8,26.64,23.58,26.64s23.4-10.62,23.4-26.64Z"/>
      <path class="cls-1" d="M367.91,207.07l9.36-20.52c9.9,5.58,19.8,8.82,32.58,8.82,18.72,0,27.54-9,27.54-26.28v-4.68c-8.1,9.72-16.92,15.66-31.5,15.66-22.5,0-42.84-16.38-42.84-45v-.36c0-28.8,20.7-45,42.84-45,14.94,0,23.76,6.3,31.14,14.4v-12.6h27.36v74.7c0,17.28-4.14,29.88-12.24,37.98-9,9-22.86,12.96-41.58,12.96-15.66,0-30.42-3.6-42.66-10.08ZM437.39,135.08v-.36c0-13.14-10.26-22.32-23.58-22.32s-23.4,9.18-23.4,22.32v.36c0,13.32,10.08,22.32,23.4,22.32s23.58-9.18,23.58-22.32Z"/>
      <path class="cls-1" d="M482.25,140.3v-.36c0-27.54,19.62-50.22,47.7-50.22,32.22,0,46.98,25.02,46.98,52.38,0,2.16-.18,4.68-.36,7.2h-67.14c2.7,12.42,11.34,18.9,23.58,18.9,9.18,0,15.84-2.88,23.4-9.9l15.66,13.86c-9,11.16-21.96,18-39.42,18-28.98,0-50.4-20.34-50.4-49.86ZM550.28,132.2c-1.62-12.24-8.82-20.52-20.34-20.52s-18.72,8.1-20.88,20.52h41.22Z"/>
      <path class="cls-2" d="M582.85,91.52h27.72l15.48,58.5,18.18-58.86h23.58l18.36,59.04,15.84-58.68h27.18l-30.06,97.2h-24.66l-18.54-59.22-18.9,59.22h-24.48l-29.7-97.2Z"/>
      <path class="cls-2" d="M734.1,160.28v-.36c0-21.06,16.02-30.78,38.88-30.78,9.72,0,16.74,1.62,23.58,3.96v-1.62c0-11.34-7.02-17.64-20.7-17.64-10.44,0-17.82,1.98-26.64,5.22l-6.84-20.88c10.62-4.68,21.06-7.74,37.44-7.74,14.94,0,25.74,3.96,32.58,10.8,7.2,7.2,10.44,17.82,10.44,30.78v55.98h-26.46v-10.44c-6.66,7.38-15.84,12.24-29.16,12.24-18.18,0-33.12-10.44-33.12-29.52ZM796.92,153.98v-4.86c-4.68-2.16-10.8-3.6-17.46-3.6-11.7,0-18.9,4.68-18.9,13.32v.36c0,7.38,6.12,11.7,14.94,11.7,12.78,0,21.42-7.02,21.42-16.92Z"/>
      <path class="cls-2" d="M915.63,91.33l-37.08,98.82c-7.38,19.62-15.3,27-31.68,27-9.9,0-14.46-2.93-18.31-4.99l8.54-18.41c1.79,1.03,3.13,1.59,6.73,1.59,4.68,0,6.82-2.31,9.16-7.17h0c4.63-10.94,5.84-23.04,3.45-34.68-10.41-50.62-51.17-91.88-96.25-115.63-73.27-39.19-164.09-35.18-233.86,10.12-17.61,11.11-33.8,24.4-48.61,39.07,28.11-31.23,62.9-56.84,102.39-71.73,93.18-36.14,208.59-6.86,270.97,72.08,9.62,12.29,17.72,25.84,23.71,40.26l12.4-36.33h28.44Z"/>
    </g>
  </g>
</svg>